<mxfile host="app.diagrams.net" modified="2024-05-13T02:44:54.240Z" agent="Mozilla/5.0 (Windows NT 10.0; Win64; x64) AppleWebKit/537.36 (KHTML, like Gecko) Chrome/124.0.0.0 Safari/537.36" version="24.4.0" etag="QJtznXJYd3C6g8Qf0123" type="github">
  <diagram name="第 1 页" id="WBrvuLjbbG72a77u2me0">
    <mxGraphModel>
      <root>
        <mxCell id="0" />
        <mxCell id="1" parent="0" />
      </root>
    </mxGraphModel>
  </diagram>
</mxfile>
